# xmcd
#
# Track frame offsets: 
#        150
#        10668
#        22099
#        39049
#        52750
#        61512
#        74110
#        91800
#        107309
#        125918
#        136997
#        151134
#
# Disc length: 2172 seconds
#
# Revision: 5
# Processed by: cddbd v1.5.2PL0 Copyright (c) Steve Scherf et al.
# Submitted via: ExactAudioCopy v1.0b4
#
DISCID=8c087a0c
DTITLE=Johnny Cash - The Very Best Of Johny Cash - CD 3 - The Western 
DTITLE=Songs
DYEAR=2006
DGENRE=Country
TTITLE0=Bonanza
TTITLE1=The Sons Of Katie Elder
TTITLE2=(Ghost) Riders In The Sky
TTITLE3=Don't Take Your Guns To Town
TTITLE4=The Rebel - Johnny Yuma
TTITLE5=The Last Gunfighter Ballad
TTITLE6=The Greatest Cowboy Of Them All
TTITLE7=The Night They Drove Old Dixie Down
TTITLE8=The Ballad Of Ira Hayes
TTITLE9=Remember The Alamo
TTITLE10=Bull Rider
TTITLE11=Apache Tears
EXTD=2006
EXTT0=
EXTT1=
EXTT2=
EXTT3=
EXTT4=
EXTT5=
EXTT6=
EXTT7=
EXTT8=
EXTT9=
EXTT10=
EXTT11=
PLAYORDER=
